# xmcd
#
# Track frame offsets:
#	182
#	12747
#	26735
#	39972
#	51647
#	67505
#	81377
#	93390
#	110242
#	123082
#	135312
#	147052
#	156160
#	168852
#	179200
#	196007
#	208542
#	222705
#	234740
#	247292
#	258487
#
# Disc length: 3625 seconds
#
# Revision: 2
# Processed by: cddbd v1.5.2PL0 Copyright (c) Steve Scherf et al.
# Submitted via: audiograbber 1.83.01
#
DISCID=390e2715
DTITLE=Johnny Cash - Reader's Digest Country Favourites CD3
DYEAR=1994
DGENRE=Country
TTITLE0=Johnny Cash and June Carter - Jackson (live) (1967)
TTITLE1=Johnny Cash - Don't Take Your Guns To Town (1958)
TTITLE2=Johnny Cash - Forty Shades Of Green (1963)
TTITLE3=Johnny Cash - In Them Old Cottonfields Back Home (1967)
TTITLE4=Johnny Cash - The Night They Drove Old Dixie Down (1974)
TTITLE5=Johnny Cash and June Carter - It Ain't Me, Babe (1965)
TTITLE6=Johnny Cash - Wabash Cannonball (1972)
TTITLE7=Johnny Cash - The City Of New Orleans (1970)
TTITLE8=Johnny Cash - My Old Kentucky Home (1975)
TTITLE9=Johnny Cash - I'm So LonesomeI I Could Cry (1970)
TTITLE10=Johnny Cash - I Still Miss Someone (1963)
TTITLE11=Johnny Cash - Delia's Gone (1970)
TTITLE12=Johnny Cash - Green Grow The Lilacs (1965)
TTITLE13=Johnny Cash - Busted (1970)
TTITLE14=Johnny Cash - (Ghost) Riders In The Sky (1979)
TTITLE15=Johnny Cash - Wreck Of The Old '97 (1969)
TTITLE16=Johnny Cash - Orange Blossom Special (1967)
TTITLE17=Johnny Cash and June Carter - When It's Springtime In Alaska (1977)
TTITLE18=Johnny Cash - The Lady Came From Baltimore (1974)
TTITLE19=Johnny Cash - Keep On The Sunny Side (1974)
TTITLE20=Johnny Cash - Let There Be Country (1976)
EXTD=Track dates supplied.
EXTT0=
EXTT1=
EXTT2=
EXTT3=
EXTT4=
EXTT5=
EXTT6=
EXTT7=
EXTT8=
EXTT9=
EXTT10=
EXTT11=
EXTT12=
EXTT13=
EXTT14=
EXTT15=
EXTT16=
EXTT17=
EXTT18=
EXTT19=
EXTT20=
PLAYORDER=
